<?xml version="1.0" standalone="no"?>
<!DOCTYPE svg PUBLIC "-//W3C//DTD SVG 1.1//EN"
"http://www.w3.org/Graphics/SVG/1.1/DTD/svg11.dtd">
<!-- Created with dep2pict 2.35.1 -->
<svg xmlns:svg="http://www.w3.org/2000/svg" xmlns="http://www.w3.org/2000/svg" xmlns:xlink="http://www.w3.org/1999/xlink" width="2050.38200" height="233.49600">
<rect x="0" y="0" width="2050.38200" height="233.49600" style="fill:white;fill-opacity:0;" />
<g  transform="translate(0,189.49600) scale(2,2)">
<text id="word__N_0" x="27.184" y="-13" font-style="normal" font-weight="normal" fill="black" font-size="12" font-family="Arial" text-anchor="middle" text-align="center">
<tspan   x="27.184" dy="10.748">__0__</tspan>
</text>
<text id="word__N_1" x="83.618" y="-13" font-style="normal" font-weight="normal" fill="black" font-size="12" font-family="Arial" text-anchor="middle" text-align="center">
<tspan   x="83.618" dy="10.748">An</tspan>
</text>
<text id="subword__N_1" x="83.618" y="-2.252" fill="black" font-size="7" font-family="Arial" text-anchor="middle" text-align="center">
<tspan   x="83.618" dy="7.103">upos=PRON</tspan>
</text>
<text id="word__N_2" x="139.405" y="-13" font-style="normal" font-weight="normal" fill="black" font-size="12" font-family="Arial" text-anchor="middle" text-align="center">
<tspan   x="139.405" dy="10.748">b'</tspan>
</text>
<text id="subword__N_2" x="139.405" y="-2.252" fill="black" font-size="7" font-family="Arial" text-anchor="middle" text-align="center">
<tspan   x="139.405" dy="7.103">upos=AUX</tspan>
</text>
<text id="word__N_3" x="195.193" y="-13" font-style="normal" font-weight="normal" fill="black" font-size="12" font-family="Arial" text-anchor="middle" text-align="center">
<tspan   x="195.193" dy="10.748">a</tspan>
</text>
<text id="subword__N_3" x="195.193" y="-2.252" fill="black" font-size="7" font-family="Arial" text-anchor="middle" text-align="center">
<tspan   x="195.193" dy="7.103">upos=PRON</tspan>
</text>
<text id="word__N_4" x="253.224" y="-13" font-style="normal" font-weight="normal" fill="black" font-size="12" font-family="Arial" text-anchor="middle" text-align="center">
<tspan   x="253.224" dy="10.748">dɔn</tspan>
</text>
<text id="subword__N_4" x="253.224" y="-2.252" fill="black" font-size="7" font-family="Arial" text-anchor="middle" text-align="center">
<tspan   x="253.224" dy="7.103">upos=VERB</tspan>
</text>
<text id="word__N_5" x="310.681" y="-13" font-style="normal" font-weight="normal" fill="black" font-size="12" font-family="Arial" text-anchor="middle" text-align="center">
<tspan   x="310.681" dy="10.748">ko</tspan>
</text>
<text id="subword__N_5" x="310.681" y="-2.252" fill="black" font-size="7" font-family="Arial" text-anchor="middle" text-align="center">
<tspan   x="310.681" dy="7.103">upos=PART</tspan>
</text>
<text id="word__N_6" x="368.033" y="-13" font-style="normal" font-weight="normal" fill="black" font-size="12" font-family="Arial" text-anchor="middle" text-align="center">
<tspan   x="368.033" dy="10.748">ko</tspan>
</text>
<text id="subword__N_6" x="368.033" y="-2.252" fill="black" font-size="7" font-family="Arial" text-anchor="middle" text-align="center">
<tspan   x="368.033" dy="7.103">upos=PART</tspan>
</text>
<text id="word__N_7" x="440.033" y="-13" font-style="normal" font-weight="normal" fill="black" font-size="12" font-family="Arial" text-anchor="middle" text-align="center">
<tspan   x="440.033" dy="10.748">jamanamara</tspan>
</text>
<text id="subword__N_7" x="440.033" y="-2.252" fill="black" font-size="7" font-family="Arial" text-anchor="middle" text-align="center">
<tspan   x="440.033" dy="7.103">upos=NOUN</tspan>
</text>
<text id="word__N_8" x="509.894" y="-13" font-style="normal" font-weight="normal" fill="black" font-size="12" font-family="Arial" text-anchor="middle" text-align="center">
<tspan   x="509.894" dy="10.748">ka</tspan>
</text>
<text id="subword__N_8" x="509.894" y="-2.252" fill="black" font-size="7" font-family="Arial" text-anchor="middle" text-align="center">
<tspan   x="509.894" dy="7.103">upos=AUX</tspan>
</text>
<text id="word__N_9" x="565.213" y="-13" font-style="normal" font-weight="normal" fill="black" font-size="12" font-family="Arial" text-anchor="middle" text-align="center">
<tspan   x="565.213" dy="10.748">kan</tspan>
</text>
<text id="subword__N_9" x="565.213" y="-2.252" fill="black" font-size="7" font-family="Arial" text-anchor="middle" text-align="center">
<tspan   x="565.213" dy="7.103">upos=VERB</tspan>
</text>
<text id="word__N_10" x="620.532" y="-13" font-style="normal" font-weight="normal" fill="black" font-size="12" font-family="Arial" text-anchor="middle" text-align="center">
<tspan   x="620.532" dy="10.748">ka</tspan>
</text>
<text id="subword__N_10" x="620.532" y="-2.252" fill="black" font-size="7" font-family="Arial" text-anchor="middle" text-align="center">
<tspan   x="620.532" dy="7.103">upos=AUX</tspan>
</text>
<text id="word__N_11" x="676.512" y="-13" font-style="normal" font-weight="normal" fill="black" font-size="12" font-family="Arial" text-anchor="middle" text-align="center">
<tspan   x="676.512" dy="10.748">tali</tspan>
</text>
<text id="subword__N_11" x="676.512" y="-2.252" fill="black" font-size="7" font-family="Arial" text-anchor="middle" text-align="center">
<tspan   x="676.512" dy="7.103">upos=NOUN</tspan>
</text>
<text id="word__N_12" x="734.735" y="-13" font-style="normal" font-weight="normal" fill="black" font-size="12" font-family="Arial" text-anchor="middle" text-align="center">
<tspan   x="734.735" dy="10.748">kɛ</tspan>
</text>
<text id="subword__N_12" x="734.735" y="-2.252" fill="black" font-size="7" font-family="Arial" text-anchor="middle" text-align="center">
<tspan   x="734.735" dy="7.103">upos=VERB</tspan>
</text>
<text id="word__N_13" x="806.09" y="-13" font-style="normal" font-weight="normal" fill="black" font-size="12" font-family="Arial" text-anchor="middle" text-align="center">
<tspan   x="806.09" dy="10.748">kɔrɔnfɛmaraw</tspan>
</text>
<text id="subword__N_13" x="806.09" y="-2.252" fill="black" font-size="7" font-family="Arial" text-anchor="middle" text-align="center">
<tspan   x="806.09" dy="7.103">upos=NOUN</tspan>
</text>
<text id="word__N_14" x="875.09" y="-13" font-style="normal" font-weight="normal" fill="black" font-size="12" font-family="Arial" text-anchor="middle" text-align="center">
<tspan   x="875.09" dy="10.748">ka</tspan>
</text>
<text id="subword__N_14" x="875.09" y="-2.252" fill="black" font-size="7" font-family="Arial" text-anchor="middle" text-align="center">
<tspan   x="875.09" dy="7.103">upos=ADP</tspan>
</text>
<text id="word__N_15" x="930.958" y="-13" font-style="normal" font-weight="normal" fill="black" font-size="12" font-family="Arial" text-anchor="middle" text-align="center">
<tspan   x="930.958" dy="10.748">tarikuw</tspan>
</text>
<text id="subword__N_15" x="930.958" y="-2.252" fill="black" font-size="7" font-family="Arial" text-anchor="middle" text-align="center">
<tspan   x="930.958" dy="7.103">upos=NOUN</tspan>
</text>
<text id="word__N_16" x="991.796" y="-13" font-style="normal" font-weight="normal" fill="black" font-size="12" font-family="Arial" text-anchor="middle" text-align="center">
<tspan   x="991.796" dy="10.748">.</tspan>
</text>
<text id="subword__N_16" x="991.796" y="-2.252" fill="black" font-size="7" font-family="Arial" text-anchor="middle" text-align="center">
<tspan   x="991.796" dy="7.103">upos=PUNCT</tspan>
</text>

<marker id="markerendword_3" markerWidth="5" markerHeight="5" markerUnits="userSpaceOnUse" orient="auto" refX="2" refY="2">
<path d="M0,0 l4,2 l-4,2 z" style="fill:black;"/>
</marker>
<text id="label__N_4__N_3__obj" x="216.69300" y="-23" style="fill:black;font-size:5px;font-family:Arial;text-anchor:middle;text-align:center" >obj</text>
<path style="marker-end:url(#markerendword_3);" stroke="black" fill="none" d="M 238.22400,-12 238.22400,-17 A 3 3 0 0 0 235.22400,-20 L 198.19300,-20 A 3 3 0 0 0 195.19300,-17 L 195.19300,-12" ></path>
<marker id="markerendword_10" markerWidth="5" markerHeight="5" markerUnits="userSpaceOnUse" orient="auto" refX="2" refY="2">
<path d="M0,0 l4,2 l-4,2 z" style="fill:black;"/>
</marker>
<text id="label__N_9__N_8__aux" x="532.39450" y="-23" style="fill:black;font-size:5px;font-family:Arial;text-anchor:middle;text-align:center" >aux</text>
<path style="marker-end:url(#markerendword_10);" stroke="black" fill="none" d="M 555.21300,-12 555.21300,-17 A 3 3 0 0 0 552.21300,-20 L 512.89450,-20 A 3 3 0 0 0 509.89450,-17 L 509.89450,-12" ></path>
<marker id="markerendword_12" markerWidth="5" markerHeight="5" markerUnits="userSpaceOnUse" orient="auto" refX="2" refY="2">
<path d="M0,0 l4,2 l-4,2 z" style="fill:black;"/>
</marker>
<text id="label__N_12__N_11__obj" x="701.51150" y="-23" style="fill:black;font-size:5px;font-family:Arial;text-anchor:middle;text-align:center" >obj</text>
<path style="marker-end:url(#markerendword_12);" stroke="black" fill="none" d="M 727.23500,-12 727.23500,-17 A 3 3 0 0 0 724.23500,-20 L 679.51150,-20 A 3 3 0 0 0 676.51150,-17 L 676.51150,-12" ></path>
<marker id="markerendword_14" markerWidth="5" markerHeight="5" markerUnits="userSpaceOnUse" orient="auto" refX="2" refY="2">
<path d="M0,0 l4,2 l-4,2 z" style="fill:black;"/>
</marker>
<text id="label__N_13__N_14__case" x="841.59000" y="-23" style="fill:black;font-size:5px;font-family:Arial;text-anchor:middle;text-align:center" >case</text>
<path style="marker-end:url(#markerendword_14);" stroke="black" fill="none" d="M 808.59000,-12 808.59000,-17 A 3 3 0 0 1 811.59000,-20 L 872.08950,-20 A 3 3 0 0 1 875.08950,-17 L 875.08950,-12" ></path>
<marker id="markerendword_2" markerWidth="5" markerHeight="5" markerUnits="userSpaceOnUse" orient="auto" refX="2" refY="2">
<path d="M0,0 l4,2 l-4,2 z" style="fill:black;"/>
</marker>
<text id="label__N_4__N_2__aux" x="190.90550" y="-33" style="fill:black;font-size:5px;font-family:Arial;text-anchor:middle;text-align:center" >aux</text>
<path style="marker-end:url(#markerendword_2);" stroke="black" fill="none" d="M 243.22400,-12 243.22400,-27 A 3 3 0 0 0 240.22400,-30 L 142.40550,-30 A 3 3 0 0 0 139.40550,-27 L 139.40550,-12" ></path>
<marker id="markerendword_9" markerWidth="5" markerHeight="5" markerUnits="userSpaceOnUse" orient="auto" refX="2" refY="2">
<path d="M0,0 l4,2 l-4,2 z" style="fill:black;"/>
</marker>
<text id="label__N_9__N_7__nsubj" x="500.03300" y="-33" style="fill:black;font-size:5px;font-family:Arial;text-anchor:middle;text-align:center" >nsubj</text>
<path style="marker-end:url(#markerendword_9);" stroke="black" fill="none" d="M 560.21300,-12 560.21300,-27 A 3 3 0 0 0 557.21300,-30 L 443.03300,-30 A 3 3 0 0 0 440.03300,-27 L 440.03300,-12" ></path>
<marker id="markerendword_11" markerWidth="5" markerHeight="5" markerUnits="userSpaceOnUse" orient="auto" refX="2" refY="2">
<path d="M0,0 l4,2 l-4,2 z" style="fill:black;"/>
</marker>
<text id="label__N_12__N_10__aux" x="676.03150" y="-33" style="fill:black;font-size:5px;font-family:Arial;text-anchor:middle;text-align:center" >aux</text>
<path style="marker-end:url(#markerendword_11);" stroke="black" fill="none" d="M 732.23500,-12 732.23500,-27 A 3 3 0 0 0 729.23500,-30 L 623.53150,-30 A 3 3 0 0 0 620.53150,-27 L 620.53150,-12" ></path>
<marker id="markerendword_15" markerWidth="5" markerHeight="5" markerUnits="userSpaceOnUse" orient="auto" refX="2" refY="2">
<path d="M0,0 l4,2 l-4,2 z" style="fill:black;"/>
</marker>
<text id="label__N_15__N_13__nmod:poss" x="865.59000" y="-33" style="fill:black;font-size:5px;font-family:Arial;text-anchor:middle;text-align:center" >nmod:poss</text>
<path style="marker-end:url(#markerendword_15);" stroke="black" fill="none" d="M 928.45750,-12 928.45750,-27 A 3 3 0 0 0 925.45750,-30 L 806.59000,-30 A 3 3 0 0 0 803.59000,-27 L 803.59000,-12" ></path>
<marker id="markerendword_1" markerWidth="5" markerHeight="5" markerUnits="userSpaceOnUse" orient="auto" refX="2" refY="2">
<path d="M0,0 l4,2 l-4,2 z" style="fill:black;"/>
</marker>
<text id="label__N_4__N_1__nsubj" x="165.61800" y="-43" style="fill:black;font-size:5px;font-family:Arial;text-anchor:middle;text-align:center" >nsubj</text>
<path style="marker-end:url(#markerendword_1);" stroke="black" fill="none" d="M 248.22400,-12 248.22400,-37 A 3 3 0 0 0 245.22400,-40 L 86.61800,-40 A 3 3 0 0 0 83.61800,-37 L 83.61800,-12" ></path>
<marker id="markerendword_8" markerWidth="5" markerHeight="5" markerUnits="userSpaceOnUse" orient="auto" refX="2" refY="2">
<path d="M0,0 l4,2 l-4,2 z" style="fill:black;"/>
</marker>
<text id="label__N_9__N_6__discourse" x="466.53300" y="-43" style="fill:black;font-size:5px;font-family:Arial;text-anchor:middle;text-align:center" >discourse</text>
<path style="marker-end:url(#markerendword_8);" stroke="black" fill="none" d="M 565.21300,-12 565.21300,-37 A 3 3 0 0 0 562.21300,-40 L 371.03300,-40 A 3 3 0 0 0 368.03300,-37 L 368.03300,-12" ></path>
<marker id="markerendword_13" markerWidth="5" markerHeight="5" markerUnits="userSpaceOnUse" orient="auto" refX="2" refY="2">
<path d="M0,0 l4,2 l-4,2 z" style="fill:black;"/>
</marker>
<text id="label__N_12__N_15__obl" x="837.73500" y="-43" style="fill:black;font-size:5px;font-family:Arial;text-anchor:middle;text-align:center" >obl</text>
<path style="marker-end:url(#markerendword_13);" stroke="black" fill="none" d="M 742.23500,-12 742.23500,-37 A 3 3 0 0 1 745.23500,-40 L 930.45750,-40 A 3 3 0 0 1 933.45750,-37 L 933.45750,-12" ></path>
<marker id="markerendword_0" markerWidth="5" markerHeight="5" markerUnits="userSpaceOnUse" orient="auto" refX="2" refY="2">
<path d="M0,0 l4,2 l-4,2 z" style="fill:black;"/>
</marker>
<text id="label__N_0__N_4__root" x="140.18400" y="-53" style="fill:black;font-size:5px;font-family:Arial;text-anchor:middle;text-align:center" >root</text>
<path style="marker-end:url(#markerendword_0);" stroke="black" fill="none" d="M 27.18400,-12 27.18400,-47 A 3 3 0 0 1 30.18400,-50 L 250.22400,-50 A 3 3 0 0 1 253.22400,-47 L 253.22400,-12" ></path>
<marker id="markerendword_7" markerWidth="5" markerHeight="5" markerUnits="userSpaceOnUse" orient="auto" refX="2" refY="2">
<path d="M0,0 l4,2 l-4,2 z" style="fill:black;"/>
</marker>
<text id="label__N_9__N_5__discourse" x="440.18100" y="-53" style="fill:black;font-size:5px;font-family:Arial;text-anchor:middle;text-align:center" >discourse</text>
<path style="marker-end:url(#markerendword_7);" stroke="black" fill="none" d="M 570.21300,-12 570.21300,-47 A 3 3 0 0 0 567.21300,-50 L 313.68100,-50 A 3 3 0 0 0 310.68100,-47 L 310.68100,-12" ></path>
<marker id="markerendword_4" markerWidth="5" markerHeight="5" markerUnits="userSpaceOnUse" orient="auto" refX="2" refY="2">
<path d="M0,0 l4,2 l-4,2 z" style="fill:black;"/>
</marker>
<text id="label__N_4__N_9__ccomp" x="421.22400" y="-63" style="fill:black;font-size:5px;font-family:Arial;text-anchor:middle;text-align:center" >ccomp</text>
<path style="marker-end:url(#markerendword_4);" stroke="black" fill="none" d="M 268.22400,-12 268.22400,-57 A 3 3 0 0 1 271.22400,-60 L 572.21300,-60 A 3 3 0 0 1 575.21300,-57 L 575.21300,-12" ></path>
<marker id="markerendword_5" markerWidth="5" markerHeight="5" markerUnits="userSpaceOnUse" orient="auto" refX="2" refY="2">
<path d="M0,0 l4,2 l-4,2 z" style="fill:black;"/>
</marker>
<text id="label__N_4__N_12__xcomp" x="500.22400" y="-73" style="fill:black;font-size:5px;font-family:Arial;text-anchor:middle;text-align:center" >xcomp</text>
<path style="marker-end:url(#markerendword_5);" stroke="black" fill="none" d="M 263.22400,-12 263.22400,-67 A 3 3 0 0 1 266.22400,-70 L 734.23500,-70 A 3 3 0 0 1 737.23500,-67 L 737.23500,-12" ></path>
<marker id="markerendword_6" markerWidth="5" markerHeight="5" markerUnits="userSpaceOnUse" orient="auto" refX="2" refY="2">
<path d="M0,0 l4,2 l-4,2 z" style="fill:black;"/>
</marker>
<text id="label__N_4__N_16__punct" x="624.72400" y="-83" style="fill:black;font-size:5px;font-family:Arial;text-anchor:middle;text-align:center" >punct</text>
<path style="marker-end:url(#markerendword_6);" stroke="black" fill="none" d="M 258.22400,-12 258.22400,-77 A 3 3 0 0 1 261.22400,-80 L 988.79550,-80 A 3 3 0 0 1 991.79550,-77 L 991.79550,-12" ></path>


</g>
</svg>
